<svg enable-background="new 0 0 140 140" height="512" viewBox="0 0 140 140" width="512" xmlns="http://www.w3.org/2000/svg"><circle cx="70" cy="70" fill="#344d5b" r="64"/><path d="m133.258255 79.7707977-12.68853-12.6887207c-1.6799927-.4699707-3.3200073-.6901855-4.9100342-.6901855-4.7910156 0-9.0072632 2.0556641-11.8353271 5.5649414l-5.8640747-5.8642578c-.0352173-.0864258-.0637817-.1740723-.1005859-.260498-.0371704.0158691-.0716553.0354004-.1086426.0515137l-40.9101601-40.9101525c-1.0123901-1.3720703-2.2722168-2.6481934-3.781189-3.78125-3.7200317 3.4099121-5.5499878 7.6899414-5.5499878 11.9199219 0 4.1098633 1.7199707 8.1799316 5.1099854 11.4099121l.1387939 3.6330566-3.5219727-3.5219727.0026855.0146484c-2.381897-2.4992676-5.5678711-4.2675781-9.239502-4.8356934-.862793 5.5793457 1.2281494 10.9165039 5.0986938 14.4562988l-.0217285-.0036621 8.2330933 8.2331543.0499878 1.3232422-3.5147095-3.5146484-.0031738.0083008c-2.3831787-2.498291-5.5728149-4.2644043-9.2521973-4.8327637-.8629761 5.5744629 1.2335205 10.9108849 5.1091309 14.4523888h-.0188599l8.2296753 8.2294922.0525513 1.3908691-3.6029053-3.668457-.0007935.0119629c-2.3740845-2.4521484-5.5321045-4.1843262-9.1687622-4.7460938-.1300049.8398438-.1900024 1.6799316-.1900024 2.5 0 4.2854004 1.7077026 8.2805176 4.5542603 11.236084l-.0092163-.0009766.0871582.0871582c.0360718.0371094.0731201.072998.1095581.1096191l8.7631836 8.7631836.2550659 6.5646973 5.7415161 5.7414551-6.2715454 4.2487793 1.6799927 2.4799805 20.7701454 20.7700195c28.9732057-3.0051269 52.20562-25.3364257 56.5784227-53.8813476z" opacity=".1"/><g fill="#fed35b"><path d="m53.512611 35.224724h2.997154v65.158394h-2.997154z" transform="matrix(.999 -.038 .038 .999 -2.546 2.147)"/><path d="m69.0460129 70.0843887c-8.7354622 2.044014-14.1599274 10.7824707-12.1159134 19.5179367 8.735466-2.044014 14.1599731-10.782486 12.1159515-19.517952z"/><path d="m41.1909866 71.1474075c8.8658409 1.3723068 14.9405212 9.6719208 13.5682182 18.5377655-8.8658409-1.3723068-14.9405632-9.671936-13.5682564-18.5377731z"/><path d="m68.4481277 54.4175987c-8.7354622 2.0440178-14.1599274 10.7824745-12.1159134 19.5179405 8.735466-2.0440216 14.1599731-10.7824821 12.1159515-19.5179482z"/><path d="m40.5931015 55.4806175c8.8658409 1.3723068 14.9405251 9.6719246 13.5682182 18.5377693-8.8658409-1.3723068-14.9405632-9.671936-13.5682564-18.5377731z"/><path d="m67.8502426 38.7508125c-8.7354622 2.0440178-14.1599274 10.7824745-12.1159096 19.5179367 8.7354622-2.044014 14.1599693-10.7824821 12.1159554-19.5179443z"/><path d="m53.0607719 21.1964302-.000042.0000019c-7.8933563 7.2423038-7.315815 18.3460712 1.290062 24.8011684 7.8933945-7.2423057 7.3158493-18.3462123-1.29002-24.8011703z"/><path d="m39.9952164 39.8138313c8.8658409 1.3723068 14.9405251 9.6719246 13.5682182 18.5377655-8.8658409-1.372303-14.9405632-9.6719322-13.5682564-18.5377693z"/><path d="m80.54393 60.797833h2.997154v65.158394h-2.997154z" transform="matrix(.561 .828 -.828 .561 113.363 -26.911)"/></g><g fill="#feda6f"><path d="m87.5268707 106.4956665c-6.3533401-6.3341522-16.6385345-6.3185959-22.9726791.0347443 6.3533401 6.3341522 16.6385574 6.3186188 22.9727097-.0347214z"/><path d="m71.8979111 83.4138947c3.522438 8.2509842-.3107834 17.7951889-8.5617714 21.317627-3.5224419-8.2509842.3107681-17.7952271 8.5617561-21.3176651z"/><path d="m100.5089874 97.705307c-6.3533401-6.3341446-16.6385345-6.3185883-22.9726791.0347519 6.3533325 6.3341446 16.6385574 6.3186188 22.9727097-.0347214z"/><path d="m84.8800201 74.6235352c3.5224457 8.2509842-.3107834 17.7951889-8.5617676 21.3176346-3.522438-8.2509842.3107681-17.7952271 8.5617523-21.3176727z"/><path d="m113.4911041 88.9149551c-6.3533401-6.3341522-16.6385345-6.3185959-22.9726868.0347443 6.3533401 6.3341522 16.6385651 6.3186188 22.9727097-.0347214z"/><path d="m120.5724945 67.0806046-.0000229-.0000381c-10.3205109-2.8710709-19.4402237 3.4895935-20.3695755 14.2071381 10.3205414 2.8711089 19.440361-3.4896394 20.3695984-14.2071z"/><path d="m97.8621368 65.8331833c3.5224457 8.2509842-.3107834 17.7951889-8.5617676 21.317627-3.522438-8.2509842.3107681-17.7952271 8.5617523-21.3176651z"/></g></svg>